<svg width="28" height="29" viewBox="0 0 28 29" fill="none" xmlns="http://www.w3.org/2000/svg">
<path d="M21.433 13.8434C21.6482 12.0629 21.1481 10.2697 20.0425 8.85756C18.9369 7.44542 17.3161 6.52979 15.536 6.31152M26.5857 14.3972C26.7771 12.8473 26.661 11.2748 26.2441 9.76984C25.8271 8.26484 25.1175 6.85683 24.1558 5.62639C23.1941 4.39596 21.9992 3.36725 20.6394 2.59912C19.2797 1.831 17.7818 1.33851 16.2316 1.1499M19.6519 18.1543C19.4093 17.9509 19.1355 17.7878 18.8411 17.6713C17.1974 17.0643 15.8506 18.3891 14.3176 18.1144C12.6827 17.8087 11.3093 16.1738 10.5384 14.8048C10.0921 14.0893 9.93377 13.2312 10.0953 12.4035C10.5915 10.4408 12.1201 9.61665 11.5308 7.37481C11.0877 5.73552 9.36426 3.31649 7.64522 2.869C4.57044 2.06708 2.92671 5.00885 2.271 7.53868C-0.0373028 16.3997 6.42241 25.8279 15.4695 27.033C18.1278 27.3918 22.1729 27.0994 22.3989 23.6259C22.5274 21.6322 21.3665 19.767 19.9753 18.4688L19.6519 18.1543Z" stroke="#E95322" stroke-width="2" stroke-linecap="round" stroke-linejoin="round"/>
</svg>
