<svg width="24" height="24" viewBox="0 0 24 24" fill="none" xmlns="http://www.w3.org/2000/svg">
<path d="M11.5334 12.0001H1.6786M4.2086 14.6565L2.25986 13.1777C2.07882 13.0397 1.93204 12.8618 1.83102 12.6578C1.73001 12.4538 1.67749 12.2292 1.67749 12.0016C1.67749 11.7739 1.73001 11.5494 1.83102 11.3454C1.93204 11.1414 2.07882 10.9634 2.25986 10.8254L4.2086 9.34361M17.9547 5.50951V18.4906M7.95224 16.1203C9.75936 22.8458 14.8585 22.3127 14.8585 22.3127C14.8585 22.3127 19.9787 22.8458 21.7647 16.1203C22.4665 13.4183 22.4665 10.5818 21.7647 7.8798C19.9727 1.15432 14.8585 1.68748 14.8585 1.68748C14.8585 1.68748 9.73827 1.15432 7.95224 7.8798" stroke="#E95322" stroke-width="2" stroke-linecap="round" stroke-linejoin="round"/>
</svg>
