<svg width="25" height="29" viewBox="0 0 25 29" fill="none" xmlns="http://www.w3.org/2000/svg">
<path d="M7.54694 11.8562V5.91877C7.55064 4.65596 8.0536 3.44578 8.9461 2.55239C9.83861 1.65901 11.0483 1.15485 12.3111 1.1499C13.5747 1.15362 14.7854 1.65727 15.679 2.55079C16.5725 3.44431 17.0761 4.65515 17.0799 5.91877V11.8562M23.5008 22.3795L22.0646 11.7436C21.9285 10.8667 21.4793 10.0687 20.8002 9.4974C20.121 8.92612 19.2579 8.62019 18.3706 8.63635H6.25613C5.36881 8.62019 4.50569 8.92612 3.82655 9.4974C3.1474 10.0687 2.69829 10.8667 2.56225 11.7436L1.12596 22.3795C1.0587 22.9898 1.12301 23.6075 1.31446 24.191C1.50591 24.7744 1.82009 25.3101 2.2359 25.7619C2.6517 26.2137 3.15947 26.5712 3.72502 26.8103C4.29057 27.0495 4.90079 27.1648 5.51461 27.1484H19.1263C19.739 27.1627 20.3476 27.046 20.9114 26.806C21.4753 26.5659 21.9813 26.208 22.3955 25.7564C22.8098 25.3048 23.1227 24.7699 23.3133 24.1875C23.5039 23.6051 23.5678 22.9886 23.5008 22.3795Z" stroke="#E95322" stroke-width="2" stroke-linecap="round" stroke-linejoin="round"/>
</svg>
