<svg width="27" height="29" viewBox="0 0 27 29" fill="none" xmlns="http://www.w3.org/2000/svg">
<path d="M22.932 15.5409L24.6356 16.5058C25.2557 16.8583 25.7082 17.4382 25.8938 18.1181C26.0793 18.7981 25.9828 19.5225 25.6254 20.1327L25.0221 21.1594C24.8445 21.4612 24.6081 21.7256 24.3265 21.9376C24.0449 22.1496 23.7235 22.3051 23.3807 22.395C23.038 22.485 22.6805 22.5077 22.3288 22.4619C21.9771 22.4161 21.6381 22.3027 21.331 22.1281L19.6353 21.1672C18.8943 21.7526 18.0655 22.2219 17.1785 22.5583V24.4957C17.1785 25.1997 16.8939 25.8747 16.3873 26.3725C15.8807 26.8702 15.1936 27.1499 14.4772 27.1499H13.2705C12.5541 27.1499 11.867 26.8702 11.3604 26.3725C10.8538 25.8747 10.5692 25.1997 10.5692 24.4957V22.5583C9.68214 22.2219 8.85341 21.7526 8.11242 21.1672L6.50739 22.0778C6.18822 22.2591 5.83584 22.3766 5.47035 22.4239C5.10487 22.4711 4.73345 22.4471 4.37742 22.3532C4.0214 22.2593 3.68773 22.0972 3.3955 21.8764C3.10326 21.6556 2.85819 21.3804 2.67434 21.0665L2.17746 20.2218C1.99276 19.9081 1.87279 19.5617 1.82436 19.2024C1.77593 18.8432 1.80001 18.4781 1.89522 18.128C1.99044 17.7779 2.1549 17.4496 2.37925 17.1619C2.60361 16.8743 2.88343 16.6329 3.20275 16.4516L4.81172 15.5409C4.65398 14.6201 4.65398 13.6798 4.81172 12.7589L3.20275 11.8482C2.88343 11.6669 2.60361 11.4255 2.37925 11.1379C2.1549 10.8502 1.99044 10.522 1.89522 10.1719C1.80001 9.8218 1.77593 9.45662 1.82436 9.09736C1.87279 8.73809 1.99276 8.39172 2.17746 8.07804L2.67434 7.23335C2.85819 6.9194 3.10326 6.64418 3.3955 6.42339C3.68773 6.2026 4.0214 6.04054 4.37742 5.9466C4.73345 5.85267 5.10487 5.82868 5.47035 5.87594C5.83584 5.92319 6.18822 6.04075 6.50739 6.22198L8.11242 7.1326C8.85341 6.54716 9.68214 6.07789 10.5692 5.74151V3.8041C10.5692 3.10015 10.8538 2.4251 11.3604 1.92733C11.867 1.42956 12.5541 1.1499 13.2705 1.1499H14.4772C15.1936 1.1499 15.8807 1.42956 16.3873 1.92733C16.8939 2.4251 17.1785 3.10015 17.1785 3.8041V5.74151C18.0655 6.07789 18.8943 6.54716 19.6353 7.1326L21.331 6.17166C21.6381 5.99709 21.9771 5.8837 22.3288 5.83791C22.6805 5.79212 23.038 5.81484 23.3807 5.90479C23.7235 5.99474 24.0449 6.15018 24.3265 6.36218C24.6081 6.57418 24.8445 6.83859 25.0221 7.14036L25.6254 8.16715C25.9828 8.77726 26.0793 9.50183 25.8938 10.1818C25.7082 10.8617 25.2557 11.4415 24.6356 11.794L22.932 12.7589C23.095 13.6793 23.095 14.6205 22.932 15.5409Z" stroke="#E95322" stroke-width="2" stroke-linecap="round" stroke-linejoin="round"/>
</svg>
