<svg width="49" height="62" viewBox="0 0 49 62" fill="none" xmlns="http://www.w3.org/2000/svg">
<rect width="49" height="62" rx="24.5" fill="#F3E9B5"/>
<path d="M8.19294 24.5738L7.8994 24.0774C7.69331 23.73 7.61954 23.3222 7.69121 22.9264C7.76288 22.5306 7.97536 22.1724 8.29078 21.916L8.73108 21.5478C9.05458 21.2984 9.27009 20.9383 9.33443 20.5394L9.43227 19.979C9.50127 19.596 9.69975 19.2471 9.99564 18.9885C10.2915 18.73 10.6676 18.5772 11.063 18.5543H11.65C12.0632 18.5657 12.4654 18.4227 12.7752 18.1541L13.2155 17.7859C13.5291 17.5293 13.9244 17.3888 14.3325 17.3888C14.7407 17.3888 15.136 17.5293 15.4496 17.7859M30.1259 34.4033C29.8032 35.0181 29.2568 35.491 28.5951 35.7283C27.9334 35.9656 27.205 35.95 26.5547 35.6842L25.5926 35.332C24.9007 35.0966 24.1482 35.0966 23.4564 35.332L22.4779 35.6842C21.8196 35.9347 21.0918 35.9467 20.4253 35.7178C19.7587 35.4889 19.1972 35.0342 18.8415 34.4354M15.4496 18.106L15.629 17.0972C15.7559 16.3905 16.1332 15.7506 16.6942 15.2907C17.2552 14.8307 17.9638 14.5807 18.6947 14.584H19.7383C20.4672 14.5811 21.1716 14.3257 21.7278 13.8633L22.5268 13.2071C23.0885 12.7502 23.795 12.5 24.5245 12.5C25.2539 12.5 25.9604 12.7502 26.5221 13.2071L27.3211 13.8633C27.8759 14.3281 28.5813 14.5839 29.3106 14.584H30.3542C31.0834 14.5869 31.7887 14.8396 32.3484 15.2985C32.9081 15.7574 33.287 16.3933 33.42 17.0972L33.5993 18.106C33.7159 18.8158 34.0929 19.459 34.6593 19.9149L35.442 20.5715C35.8329 20.8856 36.1386 21.2895 36.332 21.7476C36.5255 22.2056 36.6007 22.7034 36.5509 23.1968M12.5143 23.309C12.4424 22.8005 12.5035 22.2824 12.6918 21.8034C12.8801 21.3245 13.1894 20.9007 13.5906 20.5715M14.8136 37.0607C14.8136 37.0607 20.2928 37.0608 20.6189 49.5M23.3748 42.2638C22.7225 36.7726 19.7383 35.3801 19.7383 35.3801M29.49 32.018L29.3758 32.6261C29.3035 33.0459 29.3828 33.4776 29.6002 33.846C29.8176 34.2144 30.1593 34.4962 30.5662 34.6433L31.137 34.8356C31.543 34.991 31.8865 35.272 32.1154 35.6361L32.4089 36.1645C32.6318 36.5287 32.9752 36.8068 33.3818 36.9525C33.7884 37.0982 34.2335 37.1026 34.643 36.965L35.23 36.7567C35.6357 36.6123 36.0801 36.6123 36.4857 36.7567L37.0727 36.965C37.4796 37.1047 37.9233 37.1008 38.3278 36.9548C38.7324 36.8088 39.0727 36.5297 39.2905 36.1645L39.6003 35.6361C39.8183 35.2691 40.1579 34.9865 40.5625 34.8356L41.1495 34.6433C41.5564 34.4962 41.8981 34.2144 42.1155 33.846C42.3329 33.4776 42.4123 33.0459 42.3399 32.6261L42.2258 32.018C42.1448 31.5986 42.2262 31.1647 42.4541 30.8013L42.7476 30.2728C42.9676 29.9058 43.0474 29.474 42.9727 29.0545C42.898 28.6351 42.6737 28.2555 42.3399 27.9836L41.867 27.5994C41.5367 27.3259 41.3169 26.9456 41.2474 26.5269L41.1332 25.9344C41.0572 25.5158 40.8348 25.1366 40.5044 24.8619C40.1739 24.5871 39.7561 24.4342 39.3231 24.4296H38.7035C38.2688 24.4343 37.8467 24.2867 37.513 24.0133L37.0401 23.6131C36.7086 23.3408 36.2901 23.1918 35.8579 23.1918C35.4256 23.1918 35.0072 23.3408 34.6756 23.6131L34.2027 24.0133C33.8676 24.2843 33.4464 24.4316 33.0123 24.4296H32.3926C31.9587 24.4311 31.5393 24.5827 31.2081 24.858C30.877 25.1332 30.6555 25.5145 30.5825 25.9344L30.4684 26.5269C30.3989 26.9456 30.1791 27.3259 29.8487 27.5994L29.3758 27.9836M40.8071 24.5738L41.1006 24.0774C41.3067 23.73 41.3805 23.3222 41.3088 22.9264C41.2371 22.5306 41.0246 22.1724 40.7092 21.916L40.2689 21.5478C39.9596 21.2865 39.7474 20.9319 39.6656 20.5394L39.5677 19.979C39.5015 19.5948 39.3038 19.2444 39.0074 18.9854C38.7109 18.7264 38.3334 18.5743 37.937 18.5543H37.35C36.9424 18.5616 36.5468 18.4189 36.2411 18.1541L35.7845 17.7859C35.4848 17.5204 35.0955 17.3731 34.6919 17.3731C34.2883 17.3731 33.899 17.5204 33.5993 17.7859M34.1864 37.0607C34.1864 37.0607 28.7072 37.0608 28.3974 49.5M25.6252 42.2638C26.2775 36.7726 29.2617 35.3801 29.2617 35.3801M14.3407 23.6131L14.8136 24.0133C15.143 24.2831 15.5587 24.4305 15.9877 24.4296H16.6074C17.0424 24.4335 17.4624 24.5858 17.7956 24.8603C18.1287 25.1348 18.3544 25.5145 18.4338 25.9344L18.5316 26.5269C18.6081 26.9469 18.8334 27.3267 19.1676 27.5994L19.6405 27.9836C19.9715 28.2574 20.1938 28.6367 20.2683 29.0553C20.3429 29.4739 20.2649 29.905 20.0482 30.2728L19.7383 30.8013C19.5232 31.1694 19.4481 31.6006 19.5263 32.018L19.6242 32.6261C19.6998 33.0462 19.6219 33.4792 19.4041 33.8483C19.1863 34.2174 18.8426 34.4988 18.4338 34.6433L17.863 34.8356C17.4585 34.9865 17.1189 35.2691 16.9009 35.6361L16.5911 36.1645C16.3704 36.5309 16.0272 36.8108 15.6198 36.9568C15.2125 37.1027 14.7662 37.1057 14.357 36.965L13.7863 36.7567C13.375 36.6125 12.9256 36.6125 12.5143 36.7567L11.9436 36.965C11.5343 37.1057 11.0881 37.1027 10.6808 36.9568C10.2734 36.8108 9.9302 36.5309 9.70949 36.1645L9.39968 35.6361C9.18168 35.2691 8.84207 34.9865 8.43754 34.8356L7.85049 34.6433C7.4447 34.4959 7.10469 34.2132 6.89002 33.8444C6.67535 33.4756 6.59971 33.0442 6.67638 32.6261L6.77424 32.018C6.85248 31.6006 6.77736 31.1694 6.56224 30.8013L6.2524 30.2728C6.0324 29.9058 5.9526 29.474 6.02729 29.0545C6.10199 28.6351 6.3263 28.2555 6.66008 27.9836L7.133 27.5994C7.46199 27.3224 7.68608 26.9445 7.76897 26.5269L7.86681 25.9344C7.94622 25.5145 8.17184 25.1348 8.50502 24.8603C8.83821 24.5858 9.25823 24.4335 9.69319 24.4296H10.3129C10.7419 24.4305 11.1576 24.2831 11.487 24.0133L11.9599 23.6131C12.2954 23.3425 12.7161 23.1945 13.1503 23.1945C13.5845 23.1945 14.0052 23.3425 14.3407 23.6131Z" stroke="#E95322" stroke-linecap="round" stroke-linejoin="round"/>
</svg>
